{
  "accessors": [
    {
      "bufferView": 2,
      "componentType": 5126,
      "count": 1946,
      "max": [
        18.011693954467773,
        24.476835250854492,
        21.269098281860352
      ],
      "min": [
        -17.59907341003418,
        7.0336475372314453,
        -28.04438591003418
      ],
      "type": "VEC3"
    },
    {
      "bufferView": 2,
      "byteOffset": 23352,
      "componentType": 5126,
      "count": 1946,
      "max": [
        0.99958181381225586,
        0.99347716569900513,
        0.99942314624786377
      ],
      "min": [
        -0.99950724840164185,
        -0.99968224763870239,
        -0.99200439453125
      ],
      "type": "VEC3"
    },
    {
      "bufferView": 3,
      "componentType": 5126,
      "count": 1946,
      "max": [
        0.99901926517486572,
        0.996601402759552,
        0.99226784706115723,
        1
      ],
      "min": [
        -0.99999886751174927,
        -0.99637746810913086,
        -0.99662446975708008,
        -1
      ],
      "type": "VEC4"
    },
    {
      "bufferView": 1,
      "componentType": 5126,
      "count": 1946,
      "max": [
        0.99590998888015747,
        0.99651998281478882
      ],
      "min": [
        0.47249999642372131,
        0.47663000226020813
      ],
      "type": "VEC2"
    },
    {
      "bufferView": 0,
      "componentType": 5125,
      "count": 10944,
      "max": [
        1945
      ],
      "min": [
        0
      ],
      "type": "SCALAR"
    },
    {
      "bufferView": 2,
      "byteOffset": 46704,
      "componentType": 5126,
      "count": 3000,
      "max": [
        23.66680908203125,
        22.07984733581543,
        39.407997131347656
      ],
      "min": [
        -23.203571319580078,
        -0.37452387809753418,
        -40.940319061279297
      ],
      "type": "VEC3"
    },
    {
      "bufferView": 2,
      "byteOffset": 82704,
      "componentType": 5126,
      "count": 3000,
      "max": [
        0.99954187870025635,
        0.99995064735412598,
        0.99403446912765503
      ],
      "min": [
        -0.99961388111114502,
        -0.99999189376831055,
        -0.9989885687828064
      ],
      "type": "VEC3"
    },
    {
      "bufferView": 3,
      "byteOffset": 31136,
      "componentType": 5126,
      "count": 3000,
      "max": [
        1,
        0.99948561191558838,
        0.99673265218734741,
        1
      ],
      "min": [
        -1,
        -0.99809020757675171,
        -0.99577826261520386,
        -1
      ],
      "type": "VEC4"
    },
    {
      "bufferView": 1,
      "byteOffset": 15568,
      "componentType": 5126,
      "count": 3000,
      "max": [
        0.99804002046585083,
        0.74977999925613403
      ],
      "min": [
        0.0019499999471008778,
        0.0019499999471008778
      ],
      "type": "VEC2"
    },
    {
      "bufferView": 0,
      "byteOffset": 43776,
      "componentType": 5125,
      "count": 16416,
      "max": [
        2999
      ],
      "min": [
        0
      ],
      "type": "SCALAR"
    },
    {
      "bufferView": 2,
      "byteOffset": 118704,
      "componentType": 5126,
      "count": 16303,
      "max": [
        4.3051319122314453,
        21.87291145324707,
        36.378532409667969
      ],
      "min": [
        -3.8897020816802979,
        19.195119857788086,
        33.702816009521484
      ],
      "type": "VEC3"
    },
    {
      "bufferView": 2,
      "byteOffset": 314340,
      "componentType": 5126,
      "count": 16303,
      "max": [
        1,
        1,
        1
      ],
      "min": [
        -1,
        -1,
        -1
      ],
      "type": "VEC3"
    },
    {
      "bufferView": 3,
      "byteOffset": 79136,
      "componentType": 5126,
      "count": 16303,
      "max": [
        0.99999463558197021,
        0.99684238433837891,
        0.99999523162841797,
        1
      ],
      "min": [
        -0.99998366832733154,
        -0.99889677762985229,
        -0.89038479328155518,
        1
      ],
      "type": "VEC4"
    },
    {
      "bufferView": 1,
      "byteOffset": 39568,
      "componentType": 5126,
      "count": 16303,
      "max": [
        0.99466001987457275,
        0.99804002046585083
      ],
      "min": [
        0.0019499999471008778,
        0.0019499999471008778
      ],
      "type": "VEC2"
    },
    {
      "bufferView": 0,
      "byteOffset": 109440,
      "componentType": 5125,
      "count": 96768,
      "max": [
        16302
      ],
      "min": [
        0
      ],
      "type": "SCALAR"
    },
    {
      "bufferView": 2,
      "byteOffset": 509976,
      "componentType": 5126,
      "count": 1810,
      "max": [
        14.634047508239746,
        7.5785732269287109,
        20.038419723510742
      ],
      "min": [
        -13.936756134033203,
        3.6545000076293945,
        -20.366191864013672
      ],
      "type": "VEC3"
    },
    {
      "bufferView": 2,
      "byteOffset": 531696,
      "componentType": 5126,
      "count": 1810,
      "max": [
        0.99994266033172607,
        0.99997144937515259,
        0.99910533428192139
      ],
      "min": [
        -0.99954569339752197,
        -0.99994093179702759,
        -0.9959372878074646
      ],
      "type": "VEC3"
    },
    {
      "bufferView": 3,
      "byteOffset": 339984,
      "componentType": 5126,
      "count": 1810,
      "max": [
        0.99999064207077026,
        0.99729520082473755,
        0.78978025913238525,
        1
      ],
      "min": [
        -0.30888822674751282,
        -0.9998893141746521,
        -0.80600845813751221,
        1
      ],
      "type": "VEC4"
    },
    {
      "bufferView": 1,
      "byteOffset": 169992,
      "componentType": 5126,
      "count": 1810,
      "max": [
        0.34656998515129089,
        0.34510999917984009
      ],
      "min": [
        0.010999999940395355,
        0.0101500004529953
      ],
      "type": "VEC2"
    },
    {
      "bufferView": 0,
      "byteOffset": 496512,
      "componentType": 5125,
      "count": 10368,
      "max": [
        1809
      ],
      "min": [
        0
      ],
      "type": "SCALAR"
    },
    {
      "bufferView": 2,
      "byteOffset": 553416,
      "componentType": 5126,
      "count": 65532,
      "max": [
        25.023345947265625,
        1.5562164783477783,
        29.659835815429688
      ],
      "min": [
        -24.607917785644531,
        -0.82421213388442993,
        -18.874490737915039
      ],
      "type": "VEC3"
    },
    {
      "bufferView": 2,
      "byteOffset": 1339800,
      "componentType": 5126,
      "count": 65532,
      "max": [
        0.99997133016586304,
        0.99578946828842163,
        0.99972671270370483
      ],
      "min": [
        -0.9999346137046814,
        -0.99705135822296143,
        -0.99985778331756592
      ],
      "type": "VEC3"
    },
    {
      "bufferView": 3,
      "byteOffset": 368944,
      "componentType": 5126,
      "count": 65532,
      "max": [
        0.99953854084014893,
        0.99996179342269897,
        0.99945569038391113,
        1
      ],
      "min": [
        -0.99960184097290039,
        -0.9999576210975647,
        -0.99993866682052612,
        -1
      ],
      "type": "VEC4"
    },
    {
      "bufferView": 1,
      "byteOffset": 184472,
      "componentType": 5126,
      "count": 65532,
      "max": [
        0.99804002046585083,
        0.9885600209236145
      ],
      "min": [
        0.0019499999471008778,
        0.0019499999471008778
      ],
      "type": "VEC2"
    },
    {
      "bufferView": 0,
      "byteOffset": 537984,
      "componentType": 5125,
      "count": 98298,
      "max": [
        65531
      ],
      "min": [
        0
      ],
      "type": "SCALAR"
    },
    {
      "bufferView": 2,
      "byteOffset": 2126184,
      "componentType": 5126,
      "count": 26628,
      "max": [
        -15.714887619018555,
        1.5562164783477783,
        29.659835815429688
      ],
      "min": [
        -23.382438659667969,
        -0.69608217477798462,
        -14.125082969665527
      ],
      "type": "VEC3"
    },
    {
      "bufferView": 2,
      "byteOffset": 2445720,
      "componentType": 5126,
      "count": 26628,
      "max": [
        0.9999350905418396,
        0.98382669687271118,
        0.99297010898590088
      ],
      "min": [
        -0.99997144937515259,
        -0.9924054741859436,
        -0.99955397844314575
      ],
      "type": "VEC3"
    },
    {
      "bufferView": 3,
      "byteOffset": 1417456,
      "componentType": 5126,
      "count": 26628,
      "max": [
        0.99861705303192139,
        0.99983811378479004,
        0.99996179342269897,
        1
      ],
      "min": [
        -0.99913853406906128,
        -0.99962031841278076,
        -0.99980485439300537,
        -1
      ],
      "type": "VEC4"
    },
    {
      "bufferView": 1,
      "byteOffset": 708728,
      "componentType": 5126,
      "count": 26628,
      "max": [
        0.83310002088546753,
        0.75261002779006958
      ],
      "min": [
        0.0019499999471008778,
        0.00824000034481287
      ],
      "type": "VEC2"
    },
    {
      "bufferView": 0,
      "byteOffset": 931176,
      "componentType": 5125,
      "count": 39942,
      "max": [
        26627
      ],
      "min": [
        0
      ],
      "type": "SCALAR"
    },
    {
      "bufferView": 2,
      "byteOffset": 2765256,
      "componentType": 5126,
      "count": 324,
      "max": [
        1,
        1.6997724771499634,
        1.0000002384185791
      ],
      "min": [
        -1.0000002384185791,
        -1,
        -1.0000004768371582
      ],
      "type": "VEC3"
    },
    {
      "bufferView": 2,
      "byteOffset": 2769144,
      "componentType": 5126,
      "count": 324,
      "max": [
        1,
        1,
        1
      ],
      "min": [
        -1,
        -1.3379556662584946e-07,
        -1
      ],
      "type": "VEC3"
    },
    {
      "bufferView": 3,
      "byteOffset": 1843504,
      "componentType": 5126,
      "count": 324,
      "max": [
        1,
        0.99431896209716797,
        1,
        1
      ],
      "min": [
        -1,
        -0.99431902170181274,
        -1,
        1
      ],
      "type": "VEC4"
    },
    {
      "bufferView": 0,
      "byteOffset": 1090944,
      "componentType": 5125,
      "count": 1020,
      "max": [
        323
      ],
      "min": [
        0
      ],
      "type": "SCALAR"
    }
  ],
  "asset": {
    "extras": {
      "author": "Scott Teel (https://sketchfab.com/ArtsyScott)",
      "license": "CC-BY-4.0 (http://creativecommons.org/licenses/by/4.0/)",
      "source": "https://sketchfab.com/models/7f996bcce4fd408f9c0db72cfd2e7e0e",
      "title": "Turtle Project"
    },
    "generator": "Sketchfab-3.31.2",
    "version": "2.0"
  },
  "bufferViews": [
    {
      "buffer": 0,
      "byteLength": 1095024,
      "byteOffset": 0,
      "name": "floatBufferViews",
      "target": 34963
    },
    {
      "buffer": 0,
      "byteLength": 921752,
      "byteOffset": 1095024,
      "byteStride": 8,
      "name": "floatBufferViews",
      "target": 34962
    },
    {
      "buffer": 0,
      "byteLength": 2773032,
      "byteOffset": 2016776,
      "byteStride": 12,
      "name": "floatBufferViews",
      "target": 34962
    },
    {
      "buffer": 0,
      "byteLength": 1848688,
      "byteOffset": 4789808,
      "byteStride": 16,
      "name": "floatBufferViews",
      "target": 34962
    }
  ],
  "buffers": [
    {
      "byteLength": 6638496,
      "uri": "scene.bin"
    }
  ],
  "images": [
    {
      "uri": "textures/TurtleEye2defaultMat1_baseColor.jpeg"
    },
    {
      "uri": "textures/CLAWMat_baseColor.jpeg"
    },
    {
      "uri": "textures/blinn3_baseColor.jpeg"
    },
    {
      "uri": "textures/blinn3_normal.png"
    },
    {
      "uri": "textures/TurtleTopShader_baseColor.jpeg"
    },
    {
      "uri": "textures/TurtleTopShader_normal.png"
    },
    {
      "uri": "textures/BodyShader1_baseColor.jpeg"
    },
    {
      "uri": "textures/BodyShader1_normal.png"
    }
  ],
  "materials": [
    {
      "doubleSided": false,
      "name": "TurtleTopShader",
      "normalTexture": {
        "index": 5,
        "scale": 1,
        "texCoord": 0
      },
      "pbrMetallicRoughness": {
        "baseColorFactor": [
          1,
          1,
          1,
          1
        ],
        "baseColorTexture": {
          "index": 4,
          "texCoord": 0
        },
        "metallicFactor": 0,
        "roughnessFactor": 0.59999999999999998
      }
    },
    {
      "doubleSided": true,
      "name": "BodyShader1",
      "normalTexture": {
        "index": 7,
        "scale": 1,
        "texCoord": 0
      },
      "pbrMetallicRoughness": {
        "baseColorFactor": [
          1,
          1,
          1,
          1
        ],
        "baseColorTexture": {
          "index": 6,
          "texCoord": 0
        },
        "metallicFactor": 0,
        "roughnessFactor": 0.62976371949999999
      }
    },
    {
      "doubleSided": true,
      "name": "TurtleEye2defaultMat1",
      "pbrMetallicRoughness": {
        "baseColorFactor": [
          1,
          1,
          1,
          1
        ],
        "baseColorTexture": {
          "index": 0,
          "texCoord": 0
        },
        "metallicFactor": 0,
        "roughnessFactor": 0
      }
    },
    {
      "doubleSided": true,
      "name": "blinn3",
      "normalTexture": {
        "index": 3,
        "scale": 1,
        "texCoord": 0
      },
      "pbrMetallicRoughness": {
        "baseColorFactor": [
          1,
          1,
          1,
          1
        ],
        "baseColorTexture": {
          "index": 2,
          "texCoord": 0
        },
        "metallicFactor": 0,
        "roughnessFactor": 0.59999999999999998
      }
    },
    {
      "doubleSided": false,
      "emissiveFactor": [
        0,
        0,
        0
      ],
      "name": "CLAWMat",
      "pbrMetallicRoughness": {
        "baseColorFactor": [
          0.56000000000000005,
          0.56000000000000005,
          0.56000000000000005,
          1
        ],
        "baseColorTexture": {
          "index": 1,
          "texCoord": 0
        },
        "metallicFactor": 0,
        "roughnessFactor": 0.59999999999999998
      }
    },
    {
      "doubleSided": false,
      "name": "DishShader",
      "pbrMetallicRoughness": {
        "baseColorFactor": [
          0.020886897200000001,
          0.0092317823999999993,
          0.17534715040000001,
          1
        ],
        "metallicFactor": 0,
        "roughnessFactor": 0
      }
    }
  ],
  "meshes": [
    {
      "name": "TurtleShellT:Group4_TurtleTopShader_0",
      "primitives": [
        {
          "attributes": {
            "NORMAL": 1,
            "POSITION": 0,
            "TANGENT": 2,
            "TEXCOORD_0": 3
          },
          "indices": 4,
          "material": 0,
          "mode": 4
        }
      ]
    },
    {
      "name": "TurtleBody:Group34563_BodyShader1_0",
      "primitives": [
        {
          "attributes": {
            "NORMAL": 6,
            "POSITION": 5,
            "TANGENT": 7,
            "TEXCOORD_0": 8
          },
          "indices": 9,
          "material": 1,
          "mode": 4
        }
      ]
    },
    {
      "name": "TurtleEye2:Group18939_TurtleEye2:defaultMat1_0",
      "primitives": [
        {
          "attributes": {
            "NORMAL": 11,
            "POSITION": 10,
            "TANGENT": 12,
            "TEXCOORD_0": 13
          },
          "indices": 14,
          "material": 2,
          "mode": 4
        }
      ]
    },
    {
      "name": "TurtleShellB:Group3_blinn3_0",
      "primitives": [
        {
          "attributes": {
            "NORMAL": 16,
            "POSITION": 15,
            "TANGENT": 17,
            "TEXCOORD_0": 18
          },
          "indices": 19,
          "material": 3,
          "mode": 4
        }
      ]
    },
    {
      "name": "CLAW13_CLAWMat_0",
      "primitives": [
        {
          "attributes": {
            "NORMAL": 21,
            "POSITION": 20,
            "TANGENT": 22,
            "TEXCOORD_0": 23
          },
          "indices": 24,
          "material": 4,
          "mode": 4
        }
      ]
    },
    {
      "name": "CLAW13_CLAWMat_0",
      "primitives": [
        {
          "attributes": {
            "NORMAL": 26,
            "POSITION": 25,
            "TANGENT": 27,
            "TEXCOORD_0": 28
          },
          "indices": 29,
          "material": 4,
          "mode": 4
        }
      ]
    },
    {
      "name": "Dish_DishShader_0",
      "primitives": [
        {
          "attributes": {
            "NORMAL": 31,
            "POSITION": 30,
            "TANGENT": 32
          },
          "indices": 33,
          "material": 5,
          "mode": 4
        }
      ]
    }
  ],
  "nodes": [
    {
      "children": [
        1
      ],
      "name": "RootNode (gltf orientation matrix)",
      "rotation": [
        -0.70710678118654746,
        -0,
        -0,
        0.70710678118654757
      ]
    },
    {
      "children": [
        2
      ],
      "name": "RootNode (model correction matrix)"
    },
    {
      "children": [
        3
      ],
      "matrix": [
        1,
        0,
        0,
        0,
        0,
        0,
        1,
        0,
        0,
        -1,
        0,
        0,
        0,
        0,
        0,
        1
      ],
      "name": "2c0587007b4e4491ac81d19aeaad05fd.fbx"
    },
    {
      "children": [
        4,
        16
      ],
      "name": "RootNode"
    },
    {
      "children": [
        5,
        7,
        9,
        11,
        13
      ],
      "name": "Turtle"
    },
    {
      "children": [
        6
      ],
      "name": "TurtleShellT:Group4"
    },
    {
      "mesh": 0,
      "name": "TurtleShellT:Group4_TurtleTopShader_0"
    },
    {
      "children": [
        8
      ],
      "name": "TurtleBody:Group34563"
    },
    {
      "mesh": 1,
      "name": "TurtleBody:Group34563_BodyShader1_0"
    },
    {
      "children": [
        10
      ],
      "name": "TurtleEye2:Group18939"
    },
    {
      "mesh": 2,
      "name": "TurtleEye2:Group18939_TurtleEye2:defaultMat1_0"
    },
    {
      "children": [
        12
      ],
      "name": "TurtleShellB:Group3"
    },
    {
      "mesh": 3,
      "name": "TurtleShellB:Group3_blinn3_0"
    },
    {
      "children": [
        14,
        15
      ],
      "name": "CLAW13"
    },
    {
      "mesh": 4,
      "name": "CLAW13_CLAWMat_0"
    },
    {
      "mesh": 5,
      "name": "CLAW13_CLAWMat_0"
    },
    {
      "children": [
        17
      ],
      "matrix": [
        50.001483917236328,
        0,
        0,
        0,
        0,
        5.2699193954467773,
        0,
        0,
        0,
        0,
        50.001483917236328,
        0,
        0,
        -5.9873471260070801,
        0.4959360659122467,
        1
      ],
      "name": "Dish"
    },
    {
      "mesh": 6,
      "name": "Dish_DishShader_0"
    }
  ],
  "samplers": [
    {
      "magFilter": 9729,
      "minFilter": 9987,
      "wrapS": 10497,
      "wrapT": 10497
    }
  ],
  "scene": 0,
  "scenes": [
    {
      "name": "OSG_Scene",
      "nodes": [
        0
      ]
    }
  ],
  "textures": [
    {
      "sampler": 0,
      "source": 0
    },
    {
      "sampler": 0,
      "source": 1
    },
    {
      "sampler": 0,
      "source": 2
    },
    {
      "sampler": 0,
      "source": 3
    },
    {
      "sampler": 0,
      "source": 4
    },
    {
      "sampler": 0,
      "source": 5
    },
    {
      "sampler": 0,
      "source": 6
    },
    {
      "sampler": 0,
      "source": 7
    }
  ]
}

